<?xml version="1.0"?>
<svg xmlns="http://www.w3.org/2000/svg" viewBox="0 0 512 512" width="512" height="512" role="img" aria-label="NĀRO Ensō — on black (rounded tile)">
  <title>NĀRO Ensō — on black (rounded tile)</title>
  <rect x="0" y="0" width="512" height="512" rx="112" fill="#0A0A0A"></rect>
  <path d="M 214.72 95.22 L 210.53 96.35 L 206.37 97.59 L 202.24 98.95 L 198.15 100.41 L 194.10 101.97 L 190.10 103.64 L 186.13 105.42 L 182.22 107.30 L 178.35 109.28 L 174.54 111.36 L 170.79 113.54 L 167.09 115.82 L 163.46 118.19 L 159.88 120.66 L 156.38 123.22 L 152.94 125.87 L 149.57 128.61 L 146.28 131.43 L 143.06 134.35 L 139.91 137.34 L 136.85 140.42 L 133.87 143.57 L 130.97 146.81 L 128.15 150.11 L 125.43 153.49 L 122.79 156.94 L 120.25 160.46 L 117.80 164.05 L 115.44 167.69 L 113.18 171.40 L 111.01 175.16 L 108.95 178.98 L 106.98 182.85 L 105.12 186.78 L 103.36 190.75 L 101.71 194.76 L 100.16 198.82 L 98.72 202.91 L 97.38 207.04 L 96.16 211.21 L 95.04 215.40 L 94.03 219.63 L 93.14 223.88 L 92.35 228.15 L 91.68 232.44 L 91.12 236.74 L 90.67 241.06 L 90.34 245.39 L 90.12 249.72 L 90.01 254.07 L 90.02 258.41 L 90.14 262.75 L 90.37 267.08 L 90.72 271.41 L 91.18 275.73 L 91.75 280.03 L 92.43 284.32 L 93.23 288.59 L 94.14 292.83 L 95.16 297.05 L 96.29 301.25 L 97.52 305.41 L 98.87 309.54 L 100.32 313.63 L 101.88 317.68 L 103.55 321.69 L 105.32 325.65 L 107.19 329.57 L 109.17 333.44 L 111.24 337.25 L 113.42 341.01 L 115.69 344.71 L 118.06 348.35 L 120.52 351.92 L 123.08 355.43 L 125.72 358.88 L 128.46 362.25 L 131.28 365.55 L 134.19 368.77 L 137.18 371.92 L 140.25 374.99 L 143.40 377.97 L 146.63 380.88 L 149.93 383.69 L 153.31 386.42 L 156.76 389.07 L 160.27 391.62 L 163.85 394.07 L 167.49 396.44 L 171.19 398.70 L 174.96 400.87 L 178.77 402.94 L 182.64 404.91 L 186.56 406.78 L 190.53 408.54 L 194.54 410.20 L 198.59 411.76 L 202.69 413.21 L 206.82 414.55 L 210.98 415.78 L 215.17 416.90 L 219.40 417.91 L 223.64 418.82 L 227.91 419.61 L 232.20 420.29 L 236.51 420.85 L 240.82 421.30 L 245.15 421.65 L 249.49 421.87 L 253.83 421.99 L 258.17 421.99 L 262.51 421.87 L 266.85 421.65 L 271.18 421.30 L 275.49 420.85 L 279.80 420.29 L 284.09 419.61 L 288.36 418.82 L 292.60 417.91 L 296.83 416.90 L 301.02 415.78 L 305.18 414.55 L 309.31 413.21 L 313.41 411.76 L 317.46 410.20 L 321.47 408.54 L 325.44 406.78 L 329.36 404.91 L 333.23 402.94 L 337.04 400.87 L 340.81 398.70 L 344.51 396.44 L 348.15 394.07 L 351.73 391.62 L 355.24 389.07 L 358.69 386.42 L 362.07 383.69 L 365.37 380.88 L 368.60 377.97 L 371.75 374.99 L 374.82 371.92 L 377.81 368.77 L 380.72 365.55 L 383.54 362.25 L 386.28 358.88 L 388.92 355.43 L 391.48 351.92 L 393.94 348.35 L 396.31 344.71 L 398.58 341.01 L 400.76 337.25 L 402.83 333.44 L 404.81 329.57 L 406.68 325.65 L 408.45 321.69 L 410.12 317.68 L 411.68 313.63 L 413.13 309.54 L 414.48 305.41 L 415.71 301.25 L 416.84 297.05 L 417.86 292.83 L 418.77 288.59 L 419.57 284.32 L 420.25 280.03 L 420.82 275.73 L 421.28 271.41 L 421.63 267.08 L 421.86 262.75 L 421.98 258.41 L 421.99 254.07 L 421.88 249.72 L 421.66 245.39 L 421.33 241.06 L 420.88 236.74 L 420.32 232.44 L 419.65 228.15 L 418.86 223.88 L 417.97 219.63 L 416.96 215.40 L 415.84 211.21 L 414.62 207.04 L 413.28 202.91 L 411.84 198.82 L 410.29 194.76 L 408.64 190.75 L 406.88 186.78 L 405.02 182.85 L 403.05 178.98 L 400.99 175.16 L 398.82 171.40 L 396.56 167.69 L 394.20 164.05 L 391.75 160.46 L 389.21 156.94 L 386.57 153.49 L 383.85 150.11 L 381.03 146.81 L 378.13 143.57 L 375.15 140.42 L 372.09 137.34 L 368.94 134.35 L 365.72 131.43 L 362.43 128.61 L 359.06 125.87 L 355.62 123.22 L 352.12 120.66 L 348.54 118.19 L 344.91 115.82 L 341.21 113.54 L 337.46 111.36 L 333.65 109.28 L 329.78 107.30 L 325.87 105.42 L 321.90 103.64 L 317.90 101.97 L 313.85 100.41 L 309.76 98.95 L 305.63 97.59 L 301.47 96.35 L 297.28 95.22" fill="none" stroke="#F5F5F3" stroke-width="27" stroke-linecap="round" stroke-linejoin="round"></path>
  <path d="M 214.72 95.22 L 210.69 96.30 L 206.69 97.49 L 202.72 98.78 L 198.79 100.17 L 194.89 101.66 L 191.03 103.24 L 187.21 104.92 L 183.44 106.70 L 179.71 108.57 L 176.03 110.53 L 172.40 112.59 L 168.82 114.73 L 165.30 116.97 L 161.83 119.29 L 158.43 121.70" fill="none" stroke="#0E7C66" stroke-width="27" stroke-linecap="round" stroke-linejoin="round"></path>
</svg>