<?xml version="1.0" encoding="UTF-8"?>
<svg xmlns="http://www.w3.org/2000/svg" viewBox="18.20 -11.20 737.13 235.10" width="738" height="236" role="img" aria-label="NĀRO">
  <title>NĀRO wordmark</title>
  <g fill="#0A0A0A" fill-rule="evenodd">
    <path d="M54.08 220L18.20 220L18.20 32.80L54.08 32.80L135.46 157.60L135.46 32.80L171.34 32.80L171.34 220L135.46 220L54.08 95.20L54.08 220Z"></path>
    <path d="M208.65 220L180.44 220L241.28 32.80L280.41 32.80L341.25 220L313.04 220L299.13 177.75L222.30 177.75L208.65 220ZM230.62 152.27L290.81 152.27L260.52 59.97L230.62 152.27Z"></path>
    <path d="M385.71 220L350.35 220L350.35 32.80L429.39 32.80Q432.12 32.80 436.74 33.00Q441.35 33.19 444.99 33.84L444.99 33.84Q461.76 36.44 472.49 44.89Q483.21 53.34 488.28 66.14Q493.35 78.95 493.35 94.68L493.35 94.68Q493.35 118.21 481.65 134.85L481.65 134.85Q474.37 145.25 462.15 150.71L462.15 150.71L495.95 220L455.91 220L425.10 156.56L385.71 156.56L385.71 220ZM385.71 65.82L385.71 123.54L427.83 123.54Q430.56 123.54 433.81 123.28Q437.06 123.02 439.79 122.24L439.79 122.24Q446.94 120.29 450.84 115.67Q454.74 111.06 456.24 105.41Q457.73 99.75 457.73 94.68Q457.73 89.61 456.24 83.95Q454.74 78.30 450.84 73.69Q446.94 69.07 439.79 67.12L439.79 67.12Q437.06 66.34 433.81 66.08Q430.56 65.82 427.83 65.82L427.83 65.82L385.71 65.82Z"></path>
    <path d="M590.59 223.90L590.59 223.90Q562.51 223.90 542.16 211.68Q521.82 199.46 510.83 177.49Q499.85 155.52 499.85 126.40L499.85 126.40Q499.85 97.28 510.83 75.31Q521.82 53.34 542.16 41.12Q562.51 28.90 590.59 28.90L590.59 28.90Q618.67 28.90 639.01 41.12Q659.36 53.34 670.35 75.31Q681.33 97.28 681.33 126.40L681.33 126.40Q681.33 155.52 670.35 177.49Q659.36 199.46 639.01 211.68Q618.67 223.90 590.59 223.90ZM590.59 190.62L590.59 190.62Q608.40 190.88 620.23 182.95Q632.06 175.02 637.97 160.46Q643.89 145.90 643.89 126.40L643.89 126.40Q643.89 106.90 637.97 92.60Q632.06 78.30 620.23 70.37Q608.40 62.44 590.59 62.18L590.59 62.18Q572.78 61.92 560.95 69.85Q549.12 77.78 543.20 92.34Q537.29 106.90 537.29 126.40L537.29 126.40Q537.29 145.90 543.20 160.20Q549.12 174.50 560.95 182.43Q572.78 190.36 590.59 190.62Z"></path>
  </g>
  <rect x="180.44" y="-11.20" width="160.81" height="22" rx="3" fill="#0E7C66"></rect>
  <circle cx="733.33" cy="198.00" r="22" fill="#0E7C66"></circle>
</svg>